<?xml version="1.0" encoding="UTF-8"?>
<svg width="350" height="170" version="1.1" viewBox="0 0 350 170" xml:space="preserve" xmlns="http://www.w3.org/2000/svg" xmlns:cc="http://creativecommons.org/ns#" xmlns:dc="http://purl.org/dc/elements/1.1/" xmlns:rdf="http://www.w3.org/1999/02/22-rdf-syntax-ns#"><metadata><rdf:RDF><cc:Work rdf:about=""><dc:format>image/svg+xml</dc:format><dc:type rdf:resource="http://purl.org/dc/dcmitype/StillImage"/><dc:title/></cc:Work></rdf:RDF></metadata><defs><clipPath id="clipPath156"><path d="m0 792h612v-792h-612z"/></clipPath></defs><g transform="matrix(1.3333 0 0 -1.3333 0 1056)"><text transform="scale(1,-1)" x="13.210105" y="-765.9657" fill="#6168a5" font-family="Comfortaa" font-size="9.9996px" style="font-variant-caps:normal;font-variant-east-asian:normal;font-variant-ligatures:normal;font-variant-numeric:normal"><tspan x="13.210105" y="-765.9657">Akın İDİL</tspan></text><text transform="scale(1,-1)" x="13.210105" y="-757.9657" fill="#9daaba" font-family="Comfortaa" font-size="6px" style="font-variant-caps:normal;font-variant-east-asian:normal;font-variant-ligatures:normal;font-variant-numeric:normal"><tspan x="13.210105" y="-757.9657">Partner / Security Consultant</tspan></text><g fill="#6168a5" font-family="Comfortaa" font-size="6px"><text transform="scale(1,-1)" x="137.75795" y="-770.37366" style="font-variant-caps:normal;font-variant-east-asian:normal;font-variant-ligatures:normal;font-variant-numeric:normal"><tspan x="137.75795" y="-770.37366">e-mail			</tspan><tspan x="137.75795" y="-762.87366">tel</tspan><tspan x="137.75795" y="-755.37366">fax</tspan><tspan x="137.75795" y="-747.87366">mobile</tspan></text><text transform="scale(1,-1)" x="233.79408" y="-720.45984" style="font-variant-caps:normal;font-variant-east-asian:normal;font-variant-ligatures:normal;font-variant-numeric:normal"><tspan x="233.79408" y="-720.45984" font-family="Comfortaa" font-size="6px" style="font-variant-caps:normal;font-variant-east-asian:normal;font-variant-ligatures:normal;font-variant-numeric:normal">.</tspan></text><text transform="scale(1,-1)" x="137.75795" y="-713.25964" style="font-variant-caps:normal;font-variant-east-asian:normal;font-variant-ligatures:normal;font-variant-numeric:normal"><tspan x="137.75795" y="-713.25964">Maslak Mahallesi Bilim Sokak</tspan><tspan x="137.75795" y="-705.75964">Sun Plaza No: 5 Kat: 13</tspan><tspan x="137.75795" y="-698.25964">Sarıyer, 34485 İstanbul - Türkiye</tspan><tspan x="137.75795" y="-690.75964">www.valensas.com</tspan></text></g><g transform="translate(-181.25 337.25)"><g clip-path="url(#clipPath156)"><g transform="translate(193.42 450.89)"><path d="m0 0h224.33c4.569 0 8.308-3.731 8.308-8.292v-93.968c0-4.561-3.739-8.291-8.308-8.291h-224.33c-4.57 0-8.309 3.73-8.309 8.291v93.968c0 4.561 3.739 8.292 8.309 8.292z" fill="none" stroke="#231f20" stroke-miterlimit="22.926" stroke-width=".216"/></g></g></g><g transform="matrix(.13402 0 0 -.13402 11.806 710.74)"><g fill="#9daaba"><path class="st0" d="m234 90.5c-0.4 0-0.7 0-1.2-0.1-0.2 0-0.4-0.1-0.5-0.2-0.2-0.1-0.4-0.2-0.5-0.2 0 0-0.1 0-0.1-0.1l-0.2-0.1-0.1-0.1c-0.4-0.4-0.9-0.9-1.2-1.8l-22.7-54.1c-0.8-2 0.1-4.5 2.1-5.4 0.5-0.2 1.1-0.3 1.6-0.3 1.7 0 3.3 1.1 3.8 2.6l19 45.1 19-45.1c0.5-1.5 2.1-2.6 3.8-2.6 0.5 0 1.1 0.1 1.6 0.3 1 0.4 1.8 1.2 2.2 2.3 0.4 1 0.4 2.1-0.1 3.1l-22.6 53.5c-0.2 0.6-0.5 1.2-0.9 1.8-0.9 1.1-2.1 1.4-3 1.4z"/><path class="st0" d="m329.3 90.5c-2.2 0-4.1-1.9-4.1-4.1v-5.7c-5.7 6.3-13.4 9.8-21.5 9.8-16.4 0-29.8-14.1-29.8-31.4s13.4-31.4 29.8-31.4c8.2 0 15.9 3.5 21.5 9.7v-5.6c0-2.3 1.8-4.1 4.1-4.1s4.1 1.8 4.1 4.1v54.6c0.1 2.2-1.8 4.1-4.1 4.1zm-25.7-54.7c-11.9 0-21.5 10.4-21.5 23.3 0 12.8 9.7 23.1 21.5 23.1 11.9 0 21.5-10.4 21.5-23.1 0.1-12.8-9.6-23.3-21.5-23.3z"/><path class="st0" d="m359.8 90.5c-2.2 0-4.1-1.9-4.1-4.1v-80.5c0-2.2 1.9-4.1 4.1-4.1 2.4 0 4.3 1.9 4.3 4.1v80.5c0 2.3-1.9 4.1-4.3 4.1z"/><path class="st0" d="m411.5 90.5c-16.9 0-30.6-14-30.6-31.3 0-8.4 3.2-16.4 8.9-22.3 5.8-6 13.5-9.3 21.7-9.3 16 0 29 12.6 30.3 29.2v0.6c0 2.2-1.8 3.9-4.1 3.9h-48.4c0.5 5.6 3 10.7 6.8 14.5 4.1 4.1 9.6 6.3 15.4 6.3 7.6 0 14.6-4 18.5-10.4 0.7-1.2 2-2 3.5-2 0.7 0 1.5 0.2 2.1 0.6h0.1c1.9 1.4 2.4 3.8 1.3 5.7-5.6 9.2-15.1 14.5-25.5 14.5zm21.3-37.3c-1.1-4.8-3.8-9.1-7.5-12.2-3.9-3.3-8.8-5.1-13.8-5.1-5.2 0-10 1.7-14 5-3.8 3.1-6.4 7.4-7.7 12.3z"/><path class="st0" d="m506.1 90.5c-2.3 0-4.1-1.8-4.1-4.1v-32.9c0-9.6-7.8-17.5-17.5-17.5-9.5 0-17.4 7.8-17.6 17.5v33.6c-0.1 0.6-0.3 1.2-0.8 1.8-0.7 1-1.9 1.5-3.1 1.5h-1.2c-1.1-0.3-2.1-1.1-2.6-2.1l-0.3-0.6-0.4-0.3 0.2-0.5v-55c0-2.3 1.8-4.1 4.1-4.1 2.2 0 4 1.9 4 4.1v2.8c4.7-4.5 11.1-7 17.6-7 14.2 0 25.8 11.6 25.8 25.8v32.8c0.1 2.4-1.8 4.2-4.1 4.2z"/><path class="st0" d="m551.7 90.5c-8.1-0.1-15.8-3.1-23.1-8.9-1.7-1.5-1.9-3.8-0.5-5.6 0.8-1 1.9-1.5 3.2-1.5 1 0 1.9 0.3 2.7 1 6.1 4.5 12.1 6.8 17.8 6.8 4.2 0 8.1-1.3 10.7-3.4 2.6-1.7 4-4.1 4-6.4-0.1-2.5-1.1-4.2-3.9-6.5-2.4-1.8-6.5-3.2-12.3-4.2h-0.2l-0.3-0.1c-5-0.9-10.2-2.1-14-4.8-4.4-2.6-7.1-7-7.1-11.9 0-4.8 2.6-9.5 7-12.8 4.1-2.8 9.5-4.3 15.5-4.3 8 0 13.8 3.7 18.5 6.6l0.2 0.2c1.9 1.4 2.4 3.9 1.2 5.8-0.7 1.2-2 1.9-3.5 1.9-0.8 0-1.6-0.2-2.2-0.6l-0.4-0.3c-4.1-2.7-8.4-5.6-13.8-5.6-4.4 0-8.2 1.1-10.7 3.2-2.2 1.7-3.4 3.9-3.4 6 0 2 0.8 3.4 3 5.1 2.7 1.8 6.7 3.2 11.7 4h0.3c5.5 0.8 10.5 2.5 15.1 5.1h0.1c4.5 3 7.3 8.1 7.3 13.3 0 5-2.6 9.5-7.4 13.2-4.4 3.1-9.5 4.7-15.5 4.7z"/><path class="st0" d="m647.3 90.5c-2.2 0-4.1-1.9-4.1-4.1v-5.7c-5.7 6.3-13.4 9.8-21.5 9.8-16.4 0-29.8-14.1-29.8-31.4s13.4-31.4 29.8-31.4c8.2 0 15.9 3.5 21.5 9.7v-5.6c0-2.3 1.8-4.1 4.1-4.1s4.1 1.8 4.1 4.1v54.6c0 2.2-1.9 4.1-4.1 4.1zm-25.7-54.7c-11.9 0-21.5 10.4-21.5 23.3 0 12.8 9.7 23.1 21.5 23.1s21.5-10.4 21.5-23.1c0-12.8-9.6-23.3-21.5-23.3z"/><path class="st0" d="m693.1 90.5c-8.1-0.1-15.8-3.1-23.1-8.9-1.7-1.5-1.9-3.8-0.5-5.6 0.8-1 1.9-1.5 3.2-1.5 1 0 1.9 0.3 2.7 1 6.1 4.5 12.1 6.8 17.8 6.8 4.2 0 8.1-1.3 10.7-3.4 2.6-1.7 4-4.1 4-6.4-0.1-2.5-1.1-4.2-3.9-6.5-2.4-1.8-6.5-3.2-12.3-4.2h-0.2l-0.3-0.1c-5-0.9-10.2-2.1-14-4.8-4.4-2.6-7.1-7-7.1-11.9 0-4.8 2.6-9.5 7-12.8 4.1-2.8 9.5-4.3 15.5-4.3 8 0 13.8 3.7 18.5 6.6l0.2 0.2c1.9 1.4 2.4 3.9 1.2 5.8-0.7 1.2-2 1.9-3.5 1.9-0.8 0-1.6-0.2-2.2-0.6l-0.4-0.3c-4.1-2.7-8.4-5.6-13.8-5.6-4.4 0-8.2 1.1-10.7 3.2-2.2 1.7-3.4 3.9-3.4 6 0 2 0.8 3.4 3 5.1 2.7 1.8 6.7 3.2 11.7 4h0.3c5.5 0.8 10.5 2.5 15.1 5.1h0.1c4.5 3 7.3 8.1 7.3 13.3 0 5-2.6 9.5-7.4 13.2-4.4 3.1-9.6 4.7-15.5 4.7z"/></g><g fill="#0067b5"><path class="st1" d="m70.6 39.6c0-14 11.4-25.4 25.4-25.4s25.4 11.4 25.4 25.4c-0.1 14-11.4 25.4-25.4 25.4s-25.4-11.4-25.4-25.4z"/><path class="st1" d="m160.3 17-43.1 46.7c-7.1 7-14.6 9.3-21.4 9.2-6.8 0.2-14.3-2.2-21.4-9.2l-43.8-47.5c-15.4-14.4-37.5 3.8-26 22.5l45.6 48.9c13.1 13 29.1 19.5 45.6 19.2 16.5 0.3 32.6-6.3 45.8-19.5l43.8-47.6c15-16.4-8.5-40-25.1-22.7z"/></g><text x="710.49976" y="99.345268" fill="#000000" font-family="sans-serif" font-size="223.84px" stroke-width="5.5961" style="line-height:1.25" xml:space="preserve"><tspan x="710.49976" y="99.345268" stroke-width="5.5961"/></text></g><path d="m167.37 697.42" fill="none" stroke="#000" stroke-width=".75px"/><g fill="#000000" font-family="sans-serif" font-size="30px"><text transform="scale(1,-1)" x="211.21474" y="-690.11438" stroke-width=".75" style="line-height:1.25" xml:space="preserve"><tspan x="211.21474" y="-690.11438" stroke-width=".75"/></text><text transform="translate(-181.25 337.25)" style="line-height:1.25;shape-inside:url(#rect1223);white-space:pre" xml:space="preserve"/><text transform="scale(1,-1)" x="201.55043" y="-766.72131" stroke-width=".75" style="line-height:1.25" xml:space="preserve"><tspan x="201.55043" y="-766.72131" stroke-width=".75"/></text></g><text transform="scale(1,-1)" x="167.75795" y="-770.37366" fill="#6168a5" font-family="Comfortaa" font-size="6px" style="font-variant-caps:normal;font-variant-east-asian:normal;font-variant-ligatures:normal;font-variant-numeric:normal"><tspan x="167.75795" y="-770.37366">: akin@valensas.com</tspan><tspan x="167.75795" y="-762.87366">: +90 212 366 58 96</tspan><tspan x="167.75795" y="-755.37366">: +90 212 366 58 02</tspan><tspan x="167.75795" y="-747.87366">: +90 533 652 53 92</tspan></text></g></svg>
